<?xml version="1.0" encoding="UTF-8" standalone="no"?>
<!-- Created with Inkscape (http://www.inkscape.org/) -->

<svg
   version="1.1"
   id="svg113"
   width="665.28003"
   height="665.28003"
   viewBox="0 0 665.28003 665.28003"
   sodipodi:docname="P_logo.png.svg"
   inkscape:version="1.1.2 (0a00cf5339, 2022-02-04)"
   inkscape:export-filename="/home/patricia/Desktop/P_logo.png"
   inkscape:export-xdpi="96"
   inkscape:export-ydpi="96"
   xmlns:inkscape="http://www.inkscape.org/namespaces/inkscape"
   xmlns:sodipodi="http://sodipodi.sourceforge.net/DTD/sodipodi-0.dtd"
   xmlns="http://www.w3.org/2000/svg"
   xmlns:svg="http://www.w3.org/2000/svg">
  <defs
     id="defs117" />
  <sodipodi:namedview
     id="namedview115"
     pagecolor="#505050"
     bordercolor="#eeeeee"
     borderopacity="1"
     inkscape:pageshadow="0"
     inkscape:pageopacity="0"
     inkscape:pagecheckerboard="0"
     showgrid="false"
     inkscape:zoom="1.213023"
     inkscape:cx="147.15302"
     inkscape:cy="333.4644"
     inkscape:window-width="1850"
     inkscape:window-height="1016"
     inkscape:window-x="0"
     inkscape:window-y="0"
     inkscape:window-maximized="1"
     inkscape:current-layer="g119" />
  <g
     inkscape:groupmode="layer"
     inkscape:label="Image"
     id="g119">
    <g
       id="g401"
       transform="translate(0.1094922,2.4184155)">
      <path
         style="fill:#f7e999;stroke-width:0.96"
         d="m 265.68374,431.76002 c -0.22895,-112.94909 -0.34352,-120.22338 -1.88948,-119.96578 -0.90517,0.15081 -5.20226,-0.17174 -9.54911,-0.71679 -11.55089,-1.44835 -23.04434,-7.24722 -32.1556,-16.22367 -10.95427,-10.7922 -15.65432,-23.24652 -14.395,-38.14427 0.53252,-6.29969 0.40247,-7.24018 -1.06393,-7.69412 -9.71415,-3.0071 -17.68789,-9.13571 -21.04464,-16.1749 -1.5085,-3.16333 -1.47333,-3.35906 1.58772,-8.83773 5.00199,-8.95257 4.83041,-8.84672 13.38882,-8.26011 10.7805,0.73891 20.15662,-1.59423 32.66811,-8.1291 5.57116,-2.90986 11.85738,-6.44572 13.96938,-7.85745 2.112,-1.41174 4.596,-2.85683 5.52,-3.21131 0.924,-0.35449 1.68,-1.02108 1.68,-1.48133 0,-0.98424 -7.78424,-2.77527 -15.58487,-3.58583 -3.02768,-0.3146 -5.76527,-0.99335 -6.08355,-1.50833 -0.31828,-0.51498 1.1724,-3.88384 3.31262,-7.48636 3.19236,-5.37355 4.43871,-6.65952 6.939,-7.15957 4.41328,-0.88265 19.24137,-8.10411 28.6968,-13.97569 12.77839,-7.93505 31.93121,-22.77747 45.92742,-35.59135 7.51248,-6.87786 13.16174,-11.37117 13.66445,-10.86846 0.47137,0.47137 0.97203,12.93843 1.11258,27.70458 l 0.25555,26.84756 18.72001,0.54476 c 38.51812,1.1209 70.77511,10.57232 93.8625,27.50205 5.81491,4.26401 7.38067,6.02052 9.36363,10.50436 1.30962,2.96129 3.84876,7.00864 5.64252,8.99413 7.40745,8.19916 12.12846,17.28669 16.1954,31.1747 2.74043,9.35818 2.67031,25.81989 -0.15502,36.39356 -1.11596,4.17647 -2.02903,10.32463 -2.02903,13.6626 0,8.04381 -3.79542,16.21929 -18.24856,39.30813 -4.05524,6.47824 -19.24839,21.9564 -26.42236,26.91804 -8.4298,5.83019 -27.45377,15.06307 -37.88908,18.38868 -14.30311,4.55822 -31.50786,7.76943 -51.36,9.58617 l -7.68,0.70283 v 35.21103 c 0,34.0378 0.0658,35.29911 1.97442,37.85413 3.09034,4.13695 7.75351,5.9576 18.96048,7.40277 5.7062,0.73583 10.83698,1.79995 11.40173,2.3647 0.7291,0.7291 0.39041,2.09102 -1.16808,4.6971 -5.66146,9.46695 -6.59456,10.18459 -21.00654,16.1561 -5.91152,2.44939 -17.19553,8.9708 -27.53111,15.91115 -2.689,1.80566 -6.793,4.56393 -9.12,6.12948 -5.94295,3.99828 -21.139,17.26573 -29.64688,25.88424 -3.94679,3.99812 -7.94111,7.2693 -8.87628,7.2693 -1.61673,0 -1.71229,-5.91041 -1.94402,-120.24 z m 79.08018,-89.97515 c 11.18986,-1.94267 26.75603,-6.37868 34.4361,-9.81351 6.54133,-2.92556 17.40055,-11.50585 21.83191,-17.25025 5.65987,-7.33697 8.30016,-17.21012 8.30103,-31.0411 9.6e-4,-17.56613 -4.53214,-28.72243 -17.03821,-41.93102 -5.75751,-6.08095 -17.10942,-12.55193 -25.09473,-14.30487 -2.64,-0.57953 -6.744,-1.66567 -9.12,-2.41365 -5.71222,-1.79823 -16.59726,-1.75282 -20.14941,0.0841 -6.0402,3.12347 -5.7706,0.2203 -5.7706,62.13905 0,31.80274 0.36827,56.4264 0.84391,56.4264 0.46415,0 5.75615,-0.85282 11.76,-1.89515 z M 266.0893,264.72001 c 0.17435,-13.332 0.20761,-24.41999 0.0739,-24.63997 -0.47623,-0.78347 -6.88398,7.14626 -6.92321,8.56761 -0.022,0.7962 -1.18497,3.59851 -2.58442,6.22737 -1.7404,3.26935 -2.68683,6.76974 -2.99503,11.07727 -0.39104,5.4653 -0.10487,6.98936 2.16547,11.53263 2.47587,4.95455 7.73117,11.47509 9.24847,11.47509 0.3838,0 0.84047,-10.908 1.01483,-24.24 z"
         id="path415" />
      <path
         style="fill:#f6ce6c;stroke-width:0.96"
         d="m 266.64375,431.28002 -0.24374,-119.76001 -9.68715,-1.13014 c -15.08167,-1.75948 -24.1194,-6.05572 -34.52882,-16.41386 -10.31659,-10.26578 -14.36713,-21.03771 -13.72315,-36.49512 0.37759,-9.06332 0.76381,-8.46753 -7.34088,-11.32386 -5.44017,-1.91728 -14.44954,-10.34765 -15.49044,-14.49494 -1.14842,-4.57565 6.70235,-16.49419 10.00684,-15.19176 4.19064,1.65171 11.79669,1.51694 21.3236,-0.37782 9.17091,-1.82397 12.11464,-3.03182 32.64,-13.3926 12.408,-6.26331 23.208,-11.6059 24,-11.87244 0.792,-0.26653 1.224,-0.71967 0.96,-1.00696 -0.264,-0.2873 -4.24146,0.89521 -8.83881,2.6278 -6.9265,2.61036 -8.65375,2.94804 -10.08,1.97062 -2.1407,-1.46703 -5.61386,-2.30369 -14.11068,-3.39918 -3.64622,-0.4701 -7.01492,-1.24015 -7.48599,-1.71123 -0.502,-0.50199 0.62905,-3.35031 2.7327,-6.88172 l 3.58921,-6.02523 11.09679,0.63322 c 7.6598,0.4371 10.65078,0.3299 9.65678,-0.34608 -0.792,-0.53862 -2.232,-0.98592 -3.2,-0.994 -3.18167,-0.0266 -1.11955,-2.20863 6.61748,-7.00239 12.94875,-8.02286 37.96734,-27.20835 49.83752,-38.21787 15.30457,-14.19488 15.61222,-14.43789 16.23233,-12.8219 0.32597,0.84947 0.59267,12.68826 0.59267,26.30842 0,21.48883 0.20235,24.93188 1.53002,26.03375 1.09703,0.91045 7.14192,1.45509 21.36001,1.92449 10.90649,0.36006 21.03296,1.13256 22.50328,1.71663 1.47032,0.58408 2.98232,0.9873 3.36,0.89606 1.17463,-0.28381 11.7267,2.21428 11.7267,2.77617 0,0.29256 -1.404,0.24805 -3.12,-0.0989 -1.716,-0.34698 -9.6,-1.30388 -17.52,-2.12643 -26.83195,-2.78672 -49.08342,-0.10882 -78.24001,9.41594 -8.184,2.67352 -15.24749,5.19612 -15.69663,5.60579 -1.02699,0.93671 0.57022,1.40071 11.68707,3.39516 8.27982,1.48546 9.43067,1.48964 15.36,0.0557 9.68889,-2.34314 25.18474,-4.37298 38.56957,-5.05231 23.36054,-1.18566 43.34006,3.00732 64.96859,13.63456 6.95673,3.41821 14.51673,7.78072 16.8,9.69446 8.46242,7.09286 10.33792,7.89501 24.28257,10.38571 11.45148,2.04538 13.70295,2.74723 16.06153,5.0069 4.84428,4.64111 9.87134,17.58108 12.35285,31.79702 1.15027,6.58956 1.06167,7.80055 -1.43972,19.68001 -1.60547,7.62454 -2.60247,15.16304 -2.50711,18.95678 0.13386,5.32575 -0.3464,7.4013 -3.10992,13.44 -1.79753,3.92787 -5.06385,9.90856 -7.25851,13.29042 -2.19466,3.38186 -4.00422,6.62186 -4.02125,7.2 -0.0937,3.17902 -19.21109,25.17907 -24.92903,28.68795 -1.848,1.13403 -5.27753,3.51667 -7.62117,5.29472 -16.73121,12.69348 -51.36178,23.26833 -84.21478,25.71596 -4.83777,0.36044 -9.25432,0.93862 -9.81455,1.28486 -1.19718,0.73989 -1.71757,64.11998 -0.56414,68.70768 1.23905,4.92825 3.16812,7.90076 6.43136,9.91015 3.23657,1.99297 16.68347,4.96985 22.44933,4.96985 4.22883,0 4.25769,1.84426 0.12788,8.17099 -3.26487,5.00163 -3.12866,4.91489 -20.87393,13.29495 -8.30372,3.92136 -21.77501,11.94339 -32.47807,19.34038 -6.52844,4.51186 -17.01045,13.48516 -28.28414,24.21311 -5.6992,5.42334 -10.77352,9.8606 -11.27627,9.8606 -0.57256,0 -1.00512,-44.74261 -1.15779,-119.76 z m 50.6098,35.22454 c 4.73744,-0.55639 8.7836,-1.18168 8.99147,-1.38954 1.16068,-1.16068 2.22821,-43.52926 1.61328,-64.02858 l -0.70811,-23.60574 -10.21508,-4.83525 c -5.61831,-2.65938 -11.4031,-5.12737 -12.8551,-5.48441 l -2.64,-0.64917 -0.24,24.82407 c -0.29999,31.02933 0.0393,61.07141 0.79288,70.21173 l 0.57612,6.98765 3.0355,-0.50957 c 1.66953,-0.28027 6.91159,-0.9648 11.64904,-1.52119 z m 41.30647,-106.9345 c 26.8086,-4.13692 41.1887,-9.58743 56.12223,-21.27212 7.8757,-6.16231 9.95147,-9.01894 6.55154,-9.01608 -7.88533,0.007 -32.77073,4.11943 -38.26033,6.32326 -16.1905,6.49979 -32.82031,11.00295 -46.76261,12.66275 -5.31752,0.63305 -7.41938,0.53072 -8.78789,-0.42781 -1.48812,-1.04233 -2.44023,-1.03354 -5.5139,0.0509 -2.04336,0.72094 -7.26882,1.62537 -11.61212,2.00984 l -7.89693,0.69907 v 4.16342 c 0,2.28989 -0.432,4.43042 -0.96,4.75675 -0.528,0.32632 -0.96,1.05227 -0.96,1.61323 0,1.62571 45.31916,0.40597 58.08001,-1.56319 z m -12,-16.36754 c 4.488,-0.78725 12.26198,-2.72986 17.27552,-4.31693 5.01354,-1.58707 9.66832,-2.88557 10.34396,-2.88557 2.06275,0 14.5853,-6.65693 16.30855,-8.66954 0.89027,-1.03976 2.14973,-1.89047 2.79881,-1.89047 1.60046,0 12.78332,-13.39815 13.20665,-15.82285 0.18601,-1.06543 1.14107,-5.39315 2.12236,-9.61715 2.46426,-10.60758 2.28687,-24.61367 -0.43033,-33.97782 -5.21663,-17.97777 -21.93402,-34.43373 -39.54552,-38.92709 -3.432,-0.87562 -8.43797,-2.21824 -11.12438,-2.98357 -5.74516,-1.63675 -14.51268,-1.81391 -18.33313,-0.37044 -1.48638,0.56159 -3.89049,2.15441 -5.34249,3.5396 l -2.64001,2.51853 v 57.4204 57.4204 l 3.60001,-0.003 c 1.98,-0.002 7.272,-0.64719 11.76,-1.43444 z m -78.84098,-49.20251 c -1.88613,-2.29857 -0.90104,-51.82712 1.12579,-56.60336 2.23166,-5.25889 -0.023,-4.84432 -5.33862,0.9816 -5.80106,6.35804 -11.04842,15.77169 -13.47644,24.17643 -1.40144,4.85121 -1.4814,6.43157 -0.5093,10.06614 1.28847,4.81745 5.7229,12.57504 9.47136,16.56918 1.35751,1.44649 2.15953,2.93868 1.78225,3.31596 -1.43927,1.43926 -23.93367,-11.03854 -30.85478,-17.11536 -4.18918,-3.67814 -4.30004,-2.77468 -0.28205,2.29845 7.86562,9.93115 23.03371,17.32588 36.67155,17.87805 2.54518,0.10305 2.66837,-0.0338 1.41024,-1.56709 z m -49.79903,-52.13666 c 0,-0.49684 -0.432,-0.90334 -0.96,-0.90334 -0.528,0 -0.96,0.6735 -0.96,1.49666 0,0.82316 0.432,1.22966 0.96,0.90334 0.528,-0.32632 0.96,-0.99982 0.96,-1.49666 z m 95.90907,-92.68579 c 2.57932,-3.27907 6.69264,-12.02608 7.4603,-15.86438 l 0.60741,-3.03703 -3.20973,1.82193 c -3.43069,1.94735 -17.24705,14.55139 -17.24705,15.7337 0,0.844 6.51848,3.62216 8.81033,3.75493 0.88567,0.0513 2.49611,-1.0328 3.57874,-2.40915 z m 134.49094,57.09207 c -10.15185,-8.85976 -21.28796,-15.40009 -37.44,-21.98879 -11.48361,-4.68437 -13.59264,-5.97826 -7.55603,-4.63561 13.71055,3.04947 30.2671,10.59939 42.25456,19.26842 6.15827,4.45352 7.54147,6.10511 7.54147,9.00488 0,1.99081 -1.0381,1.6342 -4.8,-1.6489 z"
         id="path413" />
      <path
         style="fill:#e8b24a;stroke-width:0.96"
         d="m 266.64374,430.80002 c -0.24244,-119.60487 -0.25387,-120.2388 -2.16373,-120.0112 -1.056,0.12584 -5.51568,-0.18637 -9.91039,-0.69381 -6.41987,-0.74126 -9.72193,-1.77845 -16.8,-5.2769 -20.5527,-10.15852 -30.71117,-27.00615 -29.08608,-48.23877 l 0.6047,-7.90068 -2.64411,-0.62166 c -4.99836,-1.17515 -13.7752,-6.45568 -16.54703,-9.95542 -5.24526,-6.62267 -5.42691,-7.84201 -2.04801,-13.74771 4.12263,-7.20561 4.79694,-7.6499 9.84404,-6.48618 11.3604,2.61941 22.78356,0.83259 38.45707,-6.01548 l 7.39017,-3.22891 8.44983,1.56605 8.44981,1.56606 11.52,-5.1714 c 31.51274,-14.14624 65.38477,-20.04357 94.58519,-16.46786 26.55959,3.25233 56.10584,17.81413 67.04091,33.04095 4.7572,6.62428 4.90472,6.48777 -8.88124,8.21818 l -12.37514,1.55334 -2.98486,-2.42118 c -1.64167,-1.33164 -4.71285,-3.96182 -6.82485,-5.84483 -5.29003,-4.71649 -17.82697,-11.04011 -26.73015,-13.48265 -10.87651,-2.98393 -10.98847,-1.83688 -0.16956,1.73706 11.7215,3.8721 19.25048,8.45019 27.96252,17.00299 10.95115,10.75095 15.67175,21.80529 16.5805,38.82692 l 0.59669,11.17649 13.82139,-1.67109 c 7.60176,-0.91911 14.29776,-2.14991 14.88,-2.73514 0.69176,-0.69531 1.00479,-6.04883 0.90331,-15.44843 -0.14024,-12.98851 -5e-4,-14.34176 1.44,-13.94533 0.87741,0.24147 6.04551,1.19239 11.48465,2.11314 6.82767,1.1558 10.12704,2.14612 10.65709,3.19877 0.42226,0.83857 1.33352,4.27388 2.02503,7.63403 1.32553,6.44089 0.71902,12.15312 -2.54814,23.99898 -1.40086,5.07915 -1.4611,5.14006 -4.48164,4.53271 -17.31144,-3.48089 -17.55136,-3.42515 -20.23639,4.70097 -1.93104,5.84425 -7.13022,14.60826 -9.1685,15.45489 -2.23798,0.92959 -27.95938,3.96604 -28.3107,3.34212 -0.16693,-0.29646 1.13953,-4.40539 2.90327,-9.13094 1.76374,-4.72556 3.03058,-8.76814 2.8152,-8.98352 -0.21537,-0.21537 -1.64014,2.355 -3.16613,5.71193 -4.57948,10.07404 -7.89366,11.20956 -5.20546,1.7835 2.39528,-8.39894 2.10914,-26.61615 -0.55165,-35.12062 -5.59558,-17.88469 -21.36538,-33.33032 -39.10133,-38.29752 -3.168,-0.88724 -7.95797,-2.22712 -10.64438,-2.97752 -2.6864,-0.75038 -8.1296,-1.36434 -12.09596,-1.36434 -6.51056,0 -7.60324,0.28371 -11.24055,2.91857 -2.21593,1.60521 -4.19429,3.44121 -4.39634,4.08 -0.31752,1.00383 -1.03454,35.48266 -1.6013,77.00143 l -0.17036,12.48 -0.66015,-15.64659 c -0.39091,-9.26528 -1.09325,-16.07969 -1.72209,-16.70854 -0.77592,-0.77592 -4.17639,-0.72463 -12.62542,0.19043 -6.3599,0.6888 -11.578,1.51163 -11.59579,1.82853 -0.0178,0.3169 -0.44878,5.11217 -0.95778,10.65617 -0.509,5.544 -1.1759,45.97786 -1.48197,89.85302 l -0.55651,79.77301 4.35851,3.83653 c 5.91998,5.21096 14.96825,7.82895 30.2094,8.74062 11.31231,0.67667 11.89279,0.61514 18.15334,-1.92408 6.03989,-2.44973 11.74735,-3.45833 11.74735,-2.07595 0,1.09769 -5.74967,10.67469 -6.9661,11.60317 -0.65665,0.5012 -5.0819,2.54864 -9.8339,4.54988 -12.0035,5.05508 -29.45836,15.51073 -45.28015,27.12327 -6.35672,4.66557 -22.44378,18.80497 -28.60377,25.14071 -2.62015,2.69491 -5.10248,4.89983 -5.51628,4.89983 -0.4138,0 -0.86204,-54.108 -0.99608,-120.24 z m 33.72372,82.08 c 0.23791,-0.132 0.2503,-0.42225 0.0276,-0.645 -0.22275,-0.22276 -2.77875,1.26261 -5.68001,3.30082 -2.90124,2.03821 -6.50203,4.41174 -8.00174,5.27452 -2.69311,1.54934 -2.71835,1.54118 -2.04562,-0.66082 0.37463,-1.22623 1.44892,-3.95752 2.38732,-6.06952 4.27903,-9.63063 6.70504,-15.90817 6.70504,-17.34993 0,-1.03478 -2.24755,0.42481 -6.61074,4.29307 l -6.61075,5.86088 -0.67407,-3.12201 c -0.37074,-1.7171 -0.98506,-64.46601 -1.36516,-139.44201 -0.56278,-111.00994 -0.4601,-136.59899 0.55302,-137.82257 0.68426,-0.82641 4.46846,-3.40338 8.40932,-5.7266 3.94085,-2.32321 6.99022,-4.399 6.77637,-4.61285 -0.81634,-0.81634 -14.34198,6.77392 -20.9394,11.75066 -6.9091,5.21187 -12.78662,11.44806 -18.88633,20.03886 -3.49883,4.92775 -4.41969,5.3512 -12.45474,5.72718 l -5.24248,0.24531 -0.60812,-3.6106 c -0.33447,-1.98583 -0.8934,-3.89588 -1.24207,-4.24455 -0.34868,-0.34868 -3.33191,-1.12688 -6.6294,-1.72934 l -5.99545,-1.09538 v -4.63879 c 0,-4.98049 -1.14514,-6.11379 -6.24,-6.17543 l -2.4,-0.029 2.64,1.43221 c 3.1739,1.72188 3.30307,3.14902 0.59647,6.58991 -1.51768,1.92942 -1.76471,2.87676 -0.96,3.68147 0.59594,0.59594 1.08353,2.62581 1.08353,4.51083 0,7.87586 5.7918,23.33754 10.82809,28.90653 4.43877,4.90824 12.80727,11.02704 18.67649,13.65568 6.47256,2.89888 16.9511,5.44139 22.33542,5.41949 l 3.36,-0.0136 -2.71054,-2.3843 -2.71054,-2.38429 0.31183,-25.18537 c 0.30501,-24.6353 0.3642,-25.2902 2.71054,-29.98537 1.31929,-2.64 3.15471,-4.93968 4.07871,-5.11039 1.59427,-0.29456 1.68,7.49403 1.68,152.6256 v 152.93599 l 12.20746,-11.9856 c 6.7141,-6.59207 12.4021,-12.09359 12.63999,-12.22559 z M 418.2558,289.74001 c -0.30645,-0.76582 -0.53393,-0.53835 -0.57999,0.58001 -0.0417,1.01199 0.18521,1.57899 0.50421,1.26 0.319,-0.319 0.3531,-1.14701 0.0757,-1.84001 z m -82.81894,182.99421 c -3.77663,-1.86347 -6.18401,-6.90436 -6.05884,-12.68677 0.0902,-4.16713 0.16277,-4.29824 0.91182,-1.64743 0.44759,1.584 1.06245,4.0789 1.36636,5.5442 0.30389,1.46532 2.10385,4.38132 3.99989,6.48 1.89603,2.0987 3.28907,3.80596 3.09563,3.79394 -0.19344,-0.012 -1.68513,-0.67979 -3.31486,-1.48394 z m -6.00527,-34.0142 c 0,-1.32 0.2179,-1.86 0.48421,-1.2 0.26632,0.66 0.26632,1.74 0,2.4 -0.26631,0.66 -0.48421,0.12 -0.48421,-1.2 z m -0.15158,-53.57791 v -7.53448 l -13.44,-6.49979 c -7.392,-3.57489 -13.44,-6.8318 -13.44,-7.2376 0,-0.4058 10.476,-0.97628 23.28,-1.26774 38.6108,-0.87888 61.73157,-5.86696 83.14383,-17.93749 l 8.49167,-4.78692 7.42671,1.42096 c 13.92319,2.66394 13.782,2.70981 24.44035,-7.93903 7.79905,-7.79209 10.09223,-10.8073 13.68974,-18.00001 2.37675,-4.752 5.13226,-11.124 6.12335,-14.16 0.99108,-3.036 2.09643,-5.52 2.45632,-5.52 0.3599,0 0.93582,1.50029 1.27982,3.33398 0.75018,3.9988 -3.53485,15.12615 -8.82709,22.92213 -1.84587,2.71914 -3.98836,6.43169 -4.7611,8.25013 -3.90152,9.18114 -18.84181,25.41284 -31.53393,34.25964 -20.37885,14.2047 -52.94171,24.34947 -85.84966,26.74599 -4.488,0.32684 -9.13201,0.7946 -10.32001,1.03948 -2.09434,0.43171 -2.16,0.21622 -2.16,-7.08925 z m 39.60001,-11.37788 c -0.66,-0.26632 -1.74,-0.26632 -2.4,0 -0.66,0.26631 -0.12,0.48421 1.2,0.48421 1.32,0 1.86,-0.2179 1.2,-0.48421 z m 20.4,-3.23584 c 12.21785,-3.16114 28.38472,-9.82365 27.05768,-11.15069 -0.27128,-0.27129 -1.37612,-0.0207 -2.45518,0.55676 -2.83252,1.51591 -27.18301,9.49014 -35.6425,11.67209 l -7.2,1.8571 5.28,-0.47409 c 2.904,-0.26076 8.736,-1.36828 12.96,-2.46117 z m -59.36,-23.64838 c -0.35201,-0.35199 -0.64001,-1.08639 -0.64001,-1.632 0,-0.60153 0.44714,-0.54486 1.136,0.144 0.62481,0.62481 0.91281,1.35921 0.64,1.632 -0.2728,0.27281 -0.784,0.20801 -1.13599,-0.144 z M 449.15756,205.75139 c -1.20486,-1.47103 -13.42233,-10.73708 -17.74061,-13.45492 -0.99931,-0.62896 -1.35766,-1.16896 -0.79632,-1.2 1.31447,-0.0727 13.26491,7.07522 17.93939,10.7301 1.98,1.54812 3.6,3.42648 3.6,4.17411 0,1.83159 -1.39282,1.71595 -3.00246,-0.24929 z M 255.94049,194.08258 c -0.58717,-0.95005 -8.49404,-2.67388 -16.18048,-3.52762 -6.63173,-0.73659 -6.80667,-1.4358 -2.17192,-8.68107 3.08326,-4.81991 3.63376,-5.23359 6.96,-5.23022 5.28789,0.006 19.84072,2.50985 22.46736,3.86657 3.15295,1.62857 6.58456,4.88244 6.58456,6.24351 0,0.62649 -3.43924,2.71119 -7.64275,4.63267 -8.03539,3.67307 -9.21653,3.99098 -10.01677,2.69616 z m 18.88586,-10.79257 c -1.38611,-1.55569 -4.82109,-3.91701 -7.63327,-5.24738 -2.81219,-1.33038 -5.11307,-3.02693 -5.11307,-3.77013 0,-1.43468 13.23472,-10.5585 20.28308,-13.98286 l 4.20263,-2.0418 8.63715,3.73352 8.63714,3.73352 v 6.41921 6.41922 l -3.36,0.56772 c -1.848,0.31225 -4.656,1.13369 -6.24,1.82541 -1.584,0.69172 -6.03302,2.13841 -9.88672,3.21487 l -7.00672,1.9572 z m 33.33366,-6.80327 c 1.32,-0.54535 6.25061,-1.79473 10.95691,-2.77636 8.32208,-1.73584 10.09061,-2.72846 10.17394,-5.71037 0.0239,-0.85704 0.68688,-0.39761 1.63754,1.13488 0.87852,1.41619 2.48703,3.00695 3.57446,3.53503 1.77287,0.86094 1.6657,0.96685 -1.03717,1.02512 -1.65788,0.0357 -7.21343,0.92897 -12.34568,1.98497 -5.13224,1.056 -10.68779,1.89262 -12.34567,1.85914 -2.99343,-0.0604 -2.99769,-0.0677 -0.61433,-1.05241 z m 19.95144,-41.36673 c -0.19085,-7.59368 -0.61258,-10.8 -1.42054,-10.8 -1.03193,0 -5.41356,3.27672 -15.21659,11.37944 -1.82287,1.5067 -3.27606,2.3707 -3.22931,1.92 0.0468,-0.45069 4.79874,-5.07373 10.56,-10.27341 l 10.475,-9.45396 v 14.01396 c 0,7.70768 -0.20184,14.01397 -0.44856,14.01397 -0.24671,0 -0.57071,-4.86 -0.72,-10.8 z"
         id="path411" />
      <path
         style="fill:#d29835;stroke-width:0.96"
         d="m 267.38451,549.98999 c -0.28068,-0.74248 -0.61702,-54.89492 -0.74742,-120.33875 l -0.23708,-118.98878 -7.48645,-0.29667 c -13.6899,-0.5425 -27.05134,-6.64074 -36.80476,-16.79793 -10.07418,-10.4912 -14.27682,-21.9253 -13.64048,-37.11157 l 0.33169,-7.91586 -4.99215,-1.7065 c -9.24407,-3.15993 -17.80785,-11.18578 -17.80785,-16.68923 0,-2.70197 5.71576,-12.22469 7.33754,-12.22469 0.64507,0 2.52992,1.92529 4.18856,4.27841 3.79703,5.38688 9.94111,9.87921 15.38719,11.25055 5.08025,1.27922 5.87064,2.87755 3.55205,7.18292 -1.34298,2.49377 -1.49142,3.52604 -0.63081,4.38666 0.61901,0.619 1.12547,2.8127 1.12547,4.87489 0,5.05857 2.5008,14.38208 5.3835,20.07081 5.41217,10.68041 20.21072,21.41993 34.68323,25.17014 5.74412,1.48845 14.65327,2.05011 14.65327,0.92379 0,-0.32001 -1.1113,-1.456 -2.46957,-2.5244 l -2.46957,-1.94257 0.34739,-25.07559 c 0.32889,-23.74172 0.46399,-25.32121 2.53966,-29.6925 1.52085,-3.2029 2.68534,-4.52178 3.80218,-4.30635 1.49812,0.28899 1.61417,10.82413 1.67116,151.71815 0.0337,83.27419 0.34305,151.6894 0.68747,152.03382 0.34442,0.34442 5.93285,-4.47082 12.41875,-10.70054 22.1049,-21.23181 38.25528,-32.68245 60.45416,-42.8621 6.6999,-3.07235 12.6399,-5.58608 13.2,-5.58608 1.71559,0 1.14192,2.80729 -1.49217,7.30202 -2.05187,3.50127 -3.6742,4.81774 -8.88,7.20591 -16.49721,7.56809 -23.7589,11.5928 -37.3476,20.69943 -15.26886,10.23262 -22.47694,16.10774 -37.37408,30.46261 -6.06789,5.84702 -9.03428,8.12319 -9.38328,7.2 z m 26.80881,-46.22997 c 3.2373,-10.63939 4.33581,-16.56423 4.35024,-23.46334 0.009,-4.32484 0.45399,-8.13376 0.98877,-8.46427 0.53477,-0.33051 2.68164,0.86219 4.77082,2.65045 2.53337,2.16848 7.01278,4.32492 13.44931,6.47464 5.30795,1.77279 9.31709,3.53464 8.90918,3.91523 -1.30287,1.21563 -31.99158,21.04729 -32.56984,21.04729 -0.30565,0 -0.25996,-0.972 0.10152,-2.16 z m 36.04669,-118.20583 c 0,-4.30663 0.39432,-6.52836 1.2,-6.76116 0.66,-0.1907 9.19201,-1.02334 18.96001,-1.8503 36.73536,-3.11003 62.93951,-11.31108 82.56,-25.83858 6.87904,-5.09343 20.24397,-18.90312 25.06371,-25.89781 3.56656,-5.17599 9.6666,-16.92516 12.45457,-23.98849 l 1.23853,-3.13784 0.35046,2.9596 c 0.39225,3.31257 -4.49684,14.93383 -9.13927,21.72382 -1.54802,2.26412 -3.69988,6.1326 -4.78194,8.59663 -4.10426,9.34614 -17.82415,24.20777 -30.54403,33.08583 -20.75461,14.48605 -54.00476,24.68137 -87.69391,26.88915 l -9.66813,0.63359 z M 315.24447,370.2229 c -9.30296,-4.58744 -11.88905,-6.24038 -10.44446,-6.67573 1.056,-0.31824 10.992,-0.52717 22.08,-0.46429 22.36559,0.12685 36.04435,-1.51899 57.35449,-6.90094 11.06864,-2.79542 11.288,-2.81175 19.16118,-1.42617 4.38038,0.7709 8.28834,1.40221 8.68434,1.40293 1.75907,0.003 0.46296,2.00493 -2.18473,3.3741 -10.24759,5.29923 -33.07843,11.84102 -48.45527,13.88401 -4.752,0.63136 -10.71327,1.54287 -13.24726,2.02557 -2.53398,0.4827 -8.20199,0.87764 -12.59554,0.87764 -7.87469,0 -8.16416,-0.0867 -20.35275,-6.09712 z m -35.30811,-69.04365 c -0.31602,-6.45658 -0.68298,-25.76862 -0.81547,-42.91564 l -0.24088,-31.1764 4.8,-3.15079 c 7.44914,-4.88973 16.59969,-9.45449 24.39605,-12.16997 13.11043,-4.5664 8.14425,-4.49785 -6.15605,0.085 -11.89895,3.81325 -18.2525,7.30247 -33.24988,18.26 -1.58941,1.16127 -4.53396,3.59677 -6.54344,5.41222 -3.07634,2.77928 -4.61999,3.40165 -9.77013,3.93909 -3.3641,0.35106 -7.36141,0.87838 -8.8829,1.17181 -2.74686,0.52977 -2.76157,0.50743 -2.08611,-3.1705 4.84567,-26.38537 73.69567,-53.10892 122.26098,-47.45458 23.53766,2.74043 49.82374,13.73045 60.5108,25.29911 l 2.23932,2.42405 -2.71932,0.5347 c -1.49562,0.29409 -6.88898,1.03227 -11.98524,1.64039 l -9.26593,1.10569 -9.45407,-4.30034 c -11.66449,-5.30577 -16.77489,-6.95396 -27.21407,-8.77699 -12.83104,-2.24072 -17.24371,-2.53344 -24.96,-1.65573 -7.13446,0.81152 -7.15194,0.82034 -1.92,0.96807 8.25414,0.23307 24.74935,2.7099 32.34708,4.85704 30.06361,8.49611 46.45077,27.56368 48.00712,55.85952 0.44873,8.15842 0.21026,11.52752 -1.18915,16.8 -2.02317,7.62249 -7.3491,19.92218 -9.0934,21.00022 -1.3176,0.81432 -1.13752,-1.34518 0.96115,-11.52517 1.50777,-7.31379 0.67167,-20.86466 -1.81759,-29.45773 -3.40738,-11.7625 -15.69446,-26.89917 -26.78264,-32.99399 -8.57827,-4.71522 -22.57319,-8.43206 -33.32926,-8.85176 -8.04403,-0.31388 -8.91906,-0.15974 -12.36392,2.17801 -2.03897,1.38368 -4.24291,2.31023 -4.89764,2.05899 -0.8827,-0.33873 -1.3674,2.43867 -1.87514,10.74484 -0.75128,12.29027 -1.77459,19.07361 -3.07329,20.37232 -0.46381,0.4638 -5.7439,2.33109 -11.73353,4.14952 -5.98962,1.81843 -11.30812,3.72412 -11.81887,4.23487 -0.95216,0.95217 -2.17132,9.45176 -3.21264,22.3974 l -0.5882,7.31246 -8.95458,8.26677 -8.95457,8.26677 z m 53.10366,-94.50759 c 0.21999,-0.1494 -1.83201,-0.27165 -4.56,-0.27165 -2.72801,0 -4.96001,0.3721 -4.96001,0.82688 0,0.45478 1.02936,0.63009 2.28747,0.38959 1.25811,-0.24051 2.59258,0.0564 2.96547,0.65974 0.50085,0.8104 1.0946,0.77958 2.27253,-0.11794 0.87699,-0.66824 1.77454,-1.33721 1.99454,-1.48662 z M 213.5081,230.96918 c -5.09631,-1.23716 -8.91019,-3.51163 -12.70029,-7.57404 -1.3699,-1.46833 -1.84579,-2.63139 -1.23191,-3.01079 0.55015,-0.34001 4.74514,0.0835 9.32219,0.94118 7.61107,1.42619 10.03467,1.40525 17.90192,-0.15462 3.67206,-0.72809 3.42928,1.18093 -0.84842,6.67155 -3.80116,4.87895 -4.50102,5.05481 -12.44349,3.12672 z m 41.53766,-37.47983 c -0.96484,-0.73128 -3.88084,-1.58154 -6.48,-1.88947 -2.59917,-0.30793 -6.88575,-0.81641 -9.52575,-1.12996 -5.82033,-0.69127 -5.96932,-1.5342 -1.5048,-8.51336 3.72101,-5.81688 1.64824,-5.44976 19.02206,-3.36907 8.06049,0.96533 14.44649,3.63515 16.10429,6.73279 0.96152,1.7966 0.39211,2.2603 -7.06936,5.75686 -4.46331,2.09158 -8.26745,3.78913 -8.45364,3.77234 -0.18621,-0.0168 -1.12797,-0.62886 -2.0928,-1.36013 z m 20.53071,-10.02386 c -0.53411,-0.99797 -2.99937,-3.15797 -5.47837,-4.8 l -4.50726,-2.98548 4.24459,0.0207 c 5.02987,0.0246 20.80596,2.30064 21.62527,3.11996 1.23065,1.23065 -0.851,2.5144 -7.20832,4.44538 -8.01521,2.43454 -7.48621,2.42239 -8.67591,0.19941 z"
         id="path409" />
      <path
         style="fill:#a26d2d;stroke-width:0.96"
         d="m 267.38451,549.98999 c -0.28068,-0.74248 -0.61702,-54.89492 -0.74742,-120.33875 l -0.23708,-118.98878 -7.48645,-0.29667 c -13.8119,-0.54733 -27.37563,-6.78594 -36.90746,-16.9755 -9.91822,-10.60261 -14.31084,-22.86718 -13.18991,-36.82743 0.49839,-6.20703 0.35794,-7.99859 -0.65024,-8.2942 -7.71015,-2.26064 -11.43529,-4.29849 -15.85257,-8.67215 -6.25691,-6.19513 -7.09855,-9.12262 -4.19579,-14.59436 1.19457,-2.2518 2.95767,-4.80526 3.91799,-5.67433 1.64136,-1.48541 1.83481,-1.40842 3.22719,1.28415 3.1915,6.17168 11.84715,12.4034 19.53724,14.06603 3.45808,0.74766 3.84467,1.94019 1.64635,5.07873 -1.2356,1.76406 -1.31909,3.33653 -0.51685,9.73447 1.01476,8.09291 3.91264,17.84446 6.55273,22.05038 7.30541,11.63821 22.11031,21.40472 37.33768,24.63096 11.69125,2.47704 15.2183,1.52351 9.86413,-2.66676 l -2.97437,-2.32779 0.32516,-24.869 c 0.3199,-24.46575 0.36408,-24.93788 2.72517,-29.11846 1.32,-2.33721 2.94,-4.42521 3.6,-4.63999 0.95661,-0.31132 1.2,30.58519 1.2,152.32948 0,126.00802 0.22209,152.72 1.26972,152.72 0.69834,0 4.80253,-3.61941 9.12042,-8.04313 20.34238,-20.84099 44.68441,-38.19859 66.84982,-47.66869 12.45277,-5.32041 12.73743,-5.23923 8.26553,2.35729 -2.60094,4.41827 -3.4892,5.04955 -13.66363,9.71059 -5.98502,2.74182 -14.12186,6.91401 -18.08186,9.27154 -6.35611,3.78401 -10.67963,6.58323 -24.91727,16.1324 -4.55766,3.05683 -15.28716,12.49525 -26.63495,23.42997 -6.06789,5.84702 -9.03428,8.12319 -9.38328,7.2 z m 33.0955,-68.5142 c 0,-4.50767 0.19821,-8.19577 0.44044,-8.19577 0.55553,0 11.07956,7.84816 11.07956,8.26244 0,0.16831 -2.592,2.06621 -5.76,4.21756 l -5.76,3.91154 z m 31.44,-90.33412 c -0.396,-0.40791 -0.72,-3.17018 -0.72,-6.13839 v -5.39674 l 18.00001,-1.59872 c 29.61334,-2.6302 49.90316,-7.70047 68.79854,-17.19225 14.73218,-7.40046 23.93454,-14.06263 33.39549,-24.1771 7.30122,-7.80555 8.57096,-6.864 2.64493,1.96129 -4.55897,6.7894 -17.10781,19.07041 -25.90849,25.35554 -19.90745,14.21718 -53.28238,24.64804 -87.33047,27.29391 -4.488,0.34876 -8.48401,0.30036 -8.88001,-0.10754 z m -15.08754,-21.03646 c -5.23428,-2.65386 -9.54288,-5.06395 -9.57466,-5.35576 -0.0318,-0.29181 10.4182,-0.43587 23.2222,-0.32013 18.92604,0.17108 25.23898,0.58345 33.75434,2.2049 5.76089,1.09695 10.64568,2.16581 10.85509,2.37522 1.18605,1.18606 -26.40585,5.20161 -38.39476,5.58775 l -10.34532,0.33321 z m 91.52924,-67.9452 c 3.11448,-11.48731 3.06591,-25.94724 -0.12496,-37.2 -3.54575,-12.50426 -16.92293,-28.31871 -29.03673,-34.3271 -14.34606,-7.11558 -37.90492,-10.36407 -43.46196,-5.9929 -4.13306,3.25107 -4.53805,2.60852 -4.53805,-7.2 v -9.12 h 6.54104 c 22.14785,0 45.84222,6.54107 58.70529,16.20621 14.19568,10.66643 20.88252,23.96916 21.83803,43.44441 0.60851,12.40237 -0.63051,19.08921 -5.62352,30.34938 -2.55949,5.77214 -5.5463,8.43996 -4.29914,3.84 z M 279.92678,248.31998 c -1.79939,-17.45227 -1.76549,-19.54277 0.34879,-21.51253 2.83439,-2.64063 19.53331,-11.22538 26.51305,-13.63008 6.9952,-2.41003 19.67348,-4.93231 20.91999,-4.16192 1.07756,0.66597 0.04,24.0773 -1.21308,27.37332 -0.51253,1.34807 -2.16932,2.69433 -4.07929,3.31472 -1.76892,0.57457 -6.88823,2.39164 -11.37623,4.03795 -5.27829,1.9362 -9.07773,2.79744 -10.75869,2.43872 -1.82814,-0.39012 -5.1553,0.58026 -11.22092,3.27262 l -8.62223,3.82717 z m -66.07867,-18.13583 c -3.08127,-0.64232 -5.87266,-2.1437 -8.64,-4.64714 -4.60883,-4.16933 -4.12032,-4.38647 5.39144,-2.39635 3.74683,0.78394 8.62186,1.14106 11.27964,0.82628 2.57446,-0.3049 4.68082,-0.24937 4.68082,0.1234 0,0.37278 -1.13127,2.16095 -2.51394,3.97372 -2.67318,3.50472 -3.11507,3.59658 -10.19796,2.12009 z m 39.7519,-7.45936 c 0.71451,-2.13284 11.38282,-9.90026 19.04,-13.8627 33.55139,-17.3622 76.70696,-23.21887 108.96001,-14.787 7.76796,2.03077 22.76536,8.40724 23.83166,10.13255 0.35059,0.56726 -4.91371,1.60624 -13.3258,2.63001 -11.22251,1.36581 -15.05913,1.48663 -19.8856,0.62624 -18.71795,-3.33678 -40.55877,-3.94173 -53.52281,-1.4825 -10.28559,1.95114 -23.55532,6.42635 -32.73692,11.04049 -6.1419,3.08657 -9.14719,3.91805 -18.68013,5.16824 -13.38977,1.756 -14.09884,1.78371 -13.68041,0.53467 z m 0.69012,-29.76886 c -0.85244,-0.49814 -5.35602,-1.33817 -10.00796,-1.86677 -4.65194,-0.52859 -8.8661,-1.36909 -9.3648,-1.86779 -0.56898,-0.56898 0.2633,-2.95174 2.23428,-6.39667 l 3.14103,-5.48993 8.25366,0.55263 c 11.88816,0.79599 18.04172,2.35881 21.51811,5.46497 3.79731,3.39289 2.913,4.65975 -5.64369,8.08523 -6.77531,2.71235 -7.81954,2.86885 -10.13063,1.51833 z m 20.50988,-11.53053 c -1.716,-1.56108 -3.12,-3.11074 -3.12,-3.4437 0,-0.72028 11.24991,0.39286 15.07876,1.49199 1.90812,0.54776 2.26602,0.93761 1.24124,1.352 -1.73957,0.70345 -9.79268,3.50581 -9.9607,3.46618 -0.0657,-0.0155 -1.5233,-1.30539 -3.2393,-2.86647 z"
         id="path407" />
      <path
         style="fill:#6d4b22;stroke-width:0.96"
         d="m 267.82531,430.80002 c -0.008,-65.076 -0.33208,-118.78648 -0.72,-119.3566 -0.38791,-0.57014 -5.18142,-1.51407 -10.65224,-2.09762 -8.788,-0.93741 -10.99158,-1.57947 -18.9129,-5.51071 -19.21219,-9.53477 -29.57069,-27.28779 -27.77276,-47.59868 l 0.66819,-7.54845 -2.7378,-1.09061 c -9.32397,-3.71427 -12.44578,-5.5707 -15.82661,-9.41154 -5.11014,-5.80543 -5.53721,-8.10537 -2.49923,-13.45945 1.35872,-2.39459 2.82987,-4.45591 3.26922,-4.5807 0.43936,-0.12479 1.9917,1.49599 3.44964,3.60173 3.00916,4.34618 9.91091,9.0779 15.58919,10.68766 5.50606,1.56095 5.77945,2.08102 3.5077,6.67266 -1.33129,2.69076 -1.70798,4.43602 -1.09068,5.05332 0.51864,0.51864 0.94298,2.19822 0.94298,3.73241 0,4.17618 2.73437,13.97553 5.37035,19.24607 7.851,15.69781 29.48228,28.65161 47.65695,28.53916 5.08389,-0.0315 5.55354,0.15012 6.10863,2.36175 0.33072,1.31771 0.44443,55.37862 0.25269,120.13537 -0.28877,97.52644 -0.12876,117.81322 0.93207,118.16877 0.70897,0.23763 5.56059,-3.89274 10.86805,-9.25237 14.59294,-14.73643 31.51919,-27.78889 49.27587,-37.99849 9.97884,-5.73756 25.4554,-12.42896 25.4554,-11.00583 0,1.63614 -2.58662,6.07502 -4.46172,7.65672 -0.97806,0.82503 -5.88228,3.35805 -10.89828,5.62895 -8.9846,4.0676 -32.69258,18.42489 -43.40191,26.2837 -6.54597,4.80362 -22.56981,18.85403 -28.55798,25.04089 -2.35393,2.43205 -4.62193,4.42189 -5.04,4.42189 -0.41806,0 -0.76673,-53.244 -0.77482,-118.32 z m 64.3347,-45.09645 v -5.28049 l 9.36001,-0.65423 c 48.33474,-3.37843 83.84795,-16.25756 107.04,-38.81885 3.036,-2.95343 5.52,-5.05082 5.52,-4.66085 0,3.48263 -15.91501,19.83215 -26.47395,27.19674 -20.68279,14.42571 -51.68787,23.97975 -87.04605,26.82276 l -8.40001,0.67541 z m 78.46866,-89.30356 c 1.4169,-7.90454 0.68945,-23.80486 -1.42265,-31.09602 -3.8333,-13.23287 -16.82144,-28.87271 -29.17113,-35.12682 -13.91666,-7.04764 -37.12849,-10.75642 -44.20701,-7.06339 -1.41468,0.73808 -2.81868,1.09542 -3.12,0.7941 -0.30133,-0.30133 -0.54787,-3.71587 -0.54787,-7.58787 v -7.04 h 5.55649 c 8.19758,0 26.58483,2.52121 34.3206,4.70594 22.26822,6.28898 36.19413,18.35611 42.76177,37.05406 2.8285,8.05269 3.61556,26.49194 1.47896,34.64883 -1.54788,5.9093 -5.11119,14.79117 -5.93408,14.79117 -0.24553,0 -0.11732,-1.836 0.28492,-4.08 z m -140.71286,-3.45037 -2.2442,-1.72491 0.34586,-25.37236 c 0.33673,-24.70312 0.4057,-25.46893 2.61508,-29.03347 1.30336,-2.10282 2.62815,-3.3022 3.11248,-2.81787 1.19665,1.19665 0.58791,60.00143 -0.62502,60.37659 -0.528,0.16331 -1.96989,-0.47928 -3.2042,-1.42798 z m 10.08304,-61.34963 c -0.6965,-3.374 1.69671,-5.45244 13.06622,-11.34774 9.19192,-4.76617 21.2413,-8.74241 29.39732,-9.70099 l 5.19755,-0.61087 -0.62996,3.1498 c -0.34649,1.73239 -0.62997,3.9073 -0.62997,4.83312 0,1.27717 -2.37425,2.49128 -9.84,5.03181 -10.54305,3.58773 -34.79493,11.28487 -35.55597,11.28487 -0.25311,0 -0.70544,-1.188 -1.00519,-2.64 z m -23.76246,-38.59887 c -1.69474,-0.8624 -10.44043,-2.68481 -16.47638,-3.4333 -2.508,-0.31101 -4.56,-0.96451 -4.56,-1.45223 0,-0.48772 1.28884,-2.98139 2.86408,-5.54149 l 2.86408,-4.65472 5.53592,0.3358 c 13.95179,0.84629 23.70423,3.85165 24.96473,7.69326 0.62662,1.90973 -12.93095,8.20348 -15.19243,7.05268 z"
         id="path405" />
      <path
         style="fill:#533514;stroke-width:0.96"
         d="m 268.6616,508.25031 c -0.0761,-22.13766 -0.40012,-75.89029 -0.72,-119.45029 l -0.58159,-79.20001 -6.60448,-0.20807 c -13.10104,-0.41273 -25.35792,-5.76053 -35.38116,-15.43714 -3.5719,-3.44838 -6.50397,-6.73892 -6.51571,-7.31228 -0.0117,-0.57338 -0.85318,-2.12251 -1.86987,-3.44251 l -1.84853,-2.4 2.93161,-3.03067 2.93162,-3.03067 3.97826,4.09545 c 10.98011,11.30357 29.9385,19.72589 44.40237,19.72589 h 4.52509 l -0.3946,120.22575 c -0.45791,139.51636 -1.76435,126.13381 11.00661,112.74664 14.5194,-15.21997 34.35196,-30.59473 51.41068,-39.855 9.0741,-4.92583 21.18482,-10.08067 21.93082,-9.33468 1.48784,1.48785 -3.75194,5.78372 -12.23351,10.02974 -27.50687,13.77043 -46.57406,27.20317 -68.86894,48.51785 l -7.96026,7.61028 z m 87.49842,-124.74305 v -4.0421 l 6.48,-0.66244 c 9.6271,-0.98417 26.27602,-4.82599 37.66609,-8.69163 12.57772,-4.26872 24.77108,-10.45042 36.25391,-18.37974 4.884,-3.37258 8.88,-5.7683 8.88,-5.32381 0,1.2368 -11.57966,11.6625 -17.89753,16.11398 -15.56598,10.96754 -41.31706,20.42239 -65.86247,24.18228 l -5.52,0.84556 z m 56.16,-99.17453 c 0,-13.41376 -2.24674,-22.43456 -7.8515,-31.52431 -5.54591,-8.99433 -13.81058,-17.66628 -20.96176,-21.99476 -6.16538,-3.73178 -17.19053,-8.09365 -20.45772,-8.09365 -1.09927,0 -3.09901,-0.50134 -4.44386,-1.1141 -2.08736,-0.95106 -2.44516,-1.73963 -2.44516,-5.389 V 211.942 l 4.5181,0.67753 c 7.51103,1.12635 20.54514,5.18375 27.1619,8.45526 7.3853,3.65149 18.82412,14.44372 22.0746,20.82681 4.01831,7.8909 6.76557,17.61079 7.36717,26.0652 0.48761,6.85256 0.21648,9.67712 -1.56657,16.32 -1.18592,4.41827 -2.435,8.54293 -2.77571,9.16593 -0.34073,0.62299 -0.61949,-3.48101 -0.61949,-9.12 z m -142.32001,7.81984 c -2.12801,-1.48443 -2.16,-1.81703 -2.16,-22.46281 0,-15.05232 0.38586,-22.43752 1.36968,-26.21463 1.35374,-5.19732 3.07818,-9.23512 3.9441,-9.23512 0.24542,0 0.44622,13.392 0.44622,29.76 0,16.368 -0.324,29.73735 -0.72,29.70965 -0.396,-0.0276 -1.692,-0.72839 -2.88,-1.55709 z m -64.97473,-46.288 c -4.92525,-1.73369 -13.02527,-7.99711 -13.02527,-10.07193 0,-0.65637 1.28116,-2.42084 2.84702,-3.92104 l 2.84704,-2.72762 6.03296,2.93151 c 3.31814,1.61234 7.43698,3.22527 9.15298,3.58429 3.64782,0.76321 3.7675,1.31182 1.20359,5.51703 -1.05403,1.72876 -1.91803,3.8992 -1.92,4.8232 -0.005,2.03724 -1.02074,2.01796 -7.13832,-0.13544 z m 50.90442,-53.71944 c -0.30354,-0.49114 -1.95989,-1.13622 -3.68079,-1.4335 -5.80196,-1.00228 -9.83266,-1.67285 -12.99687,-2.16224 l -3.14798,-0.48688 2.66798,-4.75636 2.66797,-4.75637 7.2,0.47072 c 11.97929,0.78317 22.08,4.17804 22.08,7.42113 0,0.47522 -2.268,1.86175 -5.04,3.08118 -7.03213,3.09352 -9.11318,3.65321 -9.75031,2.62232 z"
         id="path403" />
    </g>
  </g>
</svg>
